<?xml version="1.0" encoding="utf-8"?>
<!-- Generator: Adobe Illustrator 16.0.0, SVG Export Plug-In . SVG Version: 6.00 Build 0)  -->
<!DOCTYPE svg PUBLIC "-//W3C//DTD SVG 1.1//EN" "http://www.w3.org/Graphics/SVG/1.1/DTD/svg11.dtd">
<svg version="1.1" id="Layer_1" xmlns="http://www.w3.org/2000/svg" xmlns:xlink="http://www.w3.org/1999/xlink" x="0px" y="0px"
	 width="4096px" height="3264px" viewBox="0 -912 4096 3264" enable-background="new 0 -912 4096 3264" xml:space="preserve">
<g id="Layer_1_1_">
	<g>
		<linearGradient id="SVGID_1_" gradientUnits="userSpaceOnUse" x1="2057.9727" y1="-912" x2="2057.9724" y2="2324.5698">
			<stop  offset="0" style="stop-color:#6F546A"/>
			<stop  offset="1" style="stop-color:#3D294F"/>
		</linearGradient>
		<path fill="url(#SVGID_1_)" stroke="#000000" stroke-width="8" stroke-miterlimit="10" d="M4138.943-912v2523.545l-30.943-4.796
			c-115.605-9.405-182-19.749-310-19.749c-86.549,0-216-16-212,204c2.559,140.652,43.778,261.887,7.216,364.833
			c-19.907,56.053-76.216,113.167-182.544,71.029c-139.306-55.208-34.648-206.708-49.672-419.861
			c-9.038-128.239-30.628-165.778-110-220.819c-90.069-62.461-362-33.704-438.646,0.952
			c-168.939,76.389-88.604,368.671-191.979,368.671c-123.063,0-59.831-268.157-167.32-341.418
			C2385,1568,2113,1508,2003.511,1679.699c-43.095,67.581-79.573,131.88-91.291,210.007
			c-11.72,66.408,15.624,192.663-39.063,243.444c-117.191,109.379-148.443-140.629-148.443-203.131
			c0-113.285,3.906-211.258-82.034-297.197c-85.939-82.034-115.633-79.034-225.011-82.94
			c-121.097-3.906-185.007-6.906-294.385,55.596c-82.034,46.876-119.659,93.378-174.349,163.692
			c-31.25,42.97-103.752,85.939-150.629,39.063c-39.063-39.063,7.813-89.472-23.438-124.629
			c-62.502-62.502-109.378,26.97-117.191,69.939c-19.531,128.91,7.813,207.727,0,340.543
			c-3.906,85.939-89.846,328.134-195.316,187.505c-78.127-101.564-27.346-265.632-15.627-378.917
			c3.906-82.034,61.478-241.713-31.25-285.479c-140.84-66.475-269.854,14.534-438.483-9.563V-912"/>
		<g>
			<linearGradient id="SVGID_2_" gradientUnits="userSpaceOnUse" x1="2057.9736" y1="-916.8369" x2="2057.9734" y2="2329.605">
				<stop  offset="0" style="stop-color:#6F546A"/>
				<stop  offset="1" style="stop-color:#3D294F"/>
			</linearGradient>
			<path fill="url(#SVGID_2_)" stroke="#000000" stroke-width="8" stroke-miterlimit="10" d="M4133.943-912
				c0,147.139,0,1206.279,0,1353.418c0,266.122,0,532.243,0,798.365c0,123.92,0,247.841,0,371.762
				c2.108-1.607,4.219-3.214,6.328-4.821c-88.048-13.647-178.848-20.02-267.869-23.428c-39.715-1.521-79.64-1.986-119.394-1.479
				c-25.704,0.327-51.616,2.714-76.103,10.935c-63.655,21.371-87.412,84.253-94.039,146.046
				c-12.59,117.355,27.867,233.311,19.103,350.564c-3.389,45.325-17.228,91.949-52.452,122.596
				c-41.695,36.275-103.201,26.873-149.186,4.88c-77.229-36.937-58.555-130.411-48.538-199.196
				c14.252-97.871,23.403-196.073,3.938-294.053c-13.299-66.942-58.617-122.067-120.108-151.909
				c-67.511-32.764-154.582-29.711-227.41-25.498c-66.358,3.839-141.438,9.971-202.489,38.556
				c-63.287,29.631-92.693,96.346-108.208,160.539c-8.016,33.168-12.655,67.049-18.259,100.676
				c-4.46,26.764-8.784,55.226-21.423,79.568c-11.966,23.048-33.666,29.528-57.992,22.148c-28.514-8.65-41.327-40.852-49.193-66.623
				c-20.589-67.463-20.054-139.861-46.516-205.834c-22.013-54.881-64.314-78.889-118.502-95.08
				c-68.435-20.448-143.024-25.859-213.365-13.178c-37.649,6.788-73.99,20.652-106.011,41.629
				c-36.141,23.676-60.03,56.865-82.41,93.053c-29.499,47.696-55.154,97.667-69.48,152.122
				c-11.316,43.018-10.52,86.075-10.229,130.153c0.291,44.248,1.241,94.597-23.687,133.148
				c-16.072,24.857-52.923,48.967-81.978,32.537c-24.604-13.914-36.638-47.329-44.97-72.455
				c-10.176-30.684-16.051-62.918-20.03-94.939c-9.735-78.35,2.478-157.639-18.041-234.922
				c-12.506-47.104-39.048-89.421-74.308-122.814c-28.549-27.038-59.543-52.672-97.024-65.986
				c-35.88-12.746-76.17-11.885-113.681-13.156c-51.104-1.731-102.595-4.601-153.555,1.031
				c-95.966,10.605-188.757,63.423-256.576,130.671c-35.033,34.737-60.389,78.799-96.378,112.188
				c-19.356,17.958-44.481,31.323-70.896,34.162c-33.938,3.647-64.398-21.293-66.186-55.255
				c-1.095-20.795,6.217-40.902,3.726-61.803c-2.259-18.952-16.063-31.769-31.422-41.419c-27.837-17.489-58.455-2.353-76.444,21.375
				c-25.53,33.674-31.753,71.392-35.229,112.564c-4.662,55.208,0.031,110.475,3.66,165.583
				c3.313,50.303,6.728,102.707-0.914,152.767c-5.108,33.466-15.31,66.349-27.92,97.691
				c-22.302,55.424-75.596,143.787-140.08,82.112c-78.485-75.065-59.558-201.43-44.611-297.275
				c6.652-42.666,11.423-85.372,17.308-128.086c5.451-39.573,13.636-78.676,16.931-118.541c2.918-35.289,1.811-73.09-15.502-104.855
				c-19.383-35.565-64.326-48.413-101.051-56.418c-55.511-12.101-113.204-5.154-168.81,2.355
				c-69.855,9.433-139.093,17.917-209.471,8.466c1.667,1.667,3.333,3.333,5,5c0-147.213,0-294.427,0-441.64
				c0-265.863,0-531.727,0-797.588C-18,245.604-18-789.198-18-912c0-6.449-10-6.449-10,0c0,147.213,0,1206.427,0,1353.64
				c0,265.863,0,531.727,0,797.589c0,122.802,0,245.604,0,368.406c0,3,2.299,4.637,5,5
				c111.005,14.908,217.722-20.846,328.171-16.909c46.474,1.657,112.431,12.429,140.415,54.068
				c22.447,33.401,18.75,80.455,14.842,118.417c-4.106,39.901-13.029,79.126-17.464,118.983
				c-5.225,46.959-12.836,93.395-19.569,140.169c-13.045,90.615-19.263,190.804,41.996,266.061
				c16.58,20.368,41.986,39.944,69.883,35.56c26.065-4.097,45.233-23.724,60.412-43.933
				c37.879-50.438,60.067-120.179,66.389-182.464c11.281-111.166-14.988-222.157-1.559-333.5
				c4.506-37.362,23.381-90.625,64.283-101.237c28.54-7.404,55.46,22.459,56.547,48.293c0.895,21.232-7.981,42.449-3.404,63.703
				c8.734,40.542,48.846,58.348,87.029,51.881c46.266-7.834,76.733-45.463,103.856-79.93
				c66.927-85.045,149.834-154.338,255.619-185.071c47.211-13.716,96.69-14.252,145.444-13.252
				c47.592,0.977,96.979-0.031,144.08,7.737c41.375,6.824,74.62,29.905,105.559,57.045c42.748,37.499,73.092,82.079,87.746,137.278
				c20.386,76.78,6.694,156.967,17.259,234.935c7.159,52.846,17.714,122.555,59.247,160.622
				c45.854,42.029,105.014-15.806,119.668-59.644c13.668-40.881,10.902-87.04,10.5-129.469
				c-0.479-50.471,5.132-97.253,22.392-145.095c19.414-53.813,50.279-109.623,85.741-154.58
				c26.454-33.538,63.086-57.263,102.777-72.132c73.064-27.37,156.627-24.297,231.679-7.311
				c28.101,6.358,56.271,15.137,81.848,28.567c28.449,14.94,45.885,40.953,57.603,70.167
				c26.319,65.622,25.593,138.447,46.107,205.667c12.163,39.854,49.698,92.792,98.893,69.23
				c42.569-20.39,45.316-91.39,51.68-131.009c11.048-68.795,22.565-144.418,71.408-197.795
				c48.098-52.56,131.064-60.36,197.635-67.625c80.945-8.832,170.246-12.625,248.789,12.394
				c71.832,22.882,122.265,86.698,136.57,158.71c20.551,103.447,5.606,206.727-8.604,309.701
				c-8.394,60.82-16.698,132.412,38.638,173.746c64.354,48.068,160.668,42.938,205.881-26.184
				c23.569-36.035,29.214-82.399,30.226-124.427c1.392-57.828-8.632-115.706-15.065-172.995
				c-9.295-82.744-27.862-212.396,48.938-271.515c44.335-34.127,106.55-27.572,159.009-27.482
				c61.658,0.106,123.123,3.669,184.519,9.15c49.051,4.379,98.344,7.66,147.009,15.203c3.157,0.488,6.329-1.29,6.329-4.821
				c0-147.139,0-294.279,0-441.418c0-266.122,0-532.243,0-798.365c0-123.92,0-1159.841,0-1283.762
				C4143.943-918.449,4133.943-918.449,4133.943-912L4133.943-912z"/>
		</g>
	</g>
</g>
<g id="Layer_2" display="none">
	
		<rect x="-127" y="1212" display="inline" fill="none" stroke="#000000" stroke-width="2" stroke-miterlimit="10" width="5076" height="380"/>
</g>
</svg>
