<?xml version="1.0" encoding="utf-8"?>
<!-- Generator: Adobe Illustrator 16.0.0, SVG Export Plug-In . SVG Version: 6.00 Build 0)  -->
<!DOCTYPE svg PUBLIC "-//W3C//DTD SVG 1.1//EN" "http://www.w3.org/Graphics/SVG/1.1/DTD/svg11.dtd">
<svg version="1.1" xmlns="http://www.w3.org/2000/svg" xmlns:xlink="http://www.w3.org/1999/xlink" x="0px" y="0px" width="4096px"
	 height="1094.208px" viewBox="0 1136.962 4096 1094.208" enable-background="new 0 1136.962 4096 1094.208" xml:space="preserve">
<g id="Layer_2_1_" display="none">
	
		<image display="inline" overflow="visible" width="512" height="222" xlink:href="mushroomsketches.png"  transform="matrix(4.7879 0 0 4.7879 -248.0391 1120.9609)">
	</image>
</g>
<g id="Layer_1">
	<g>
		<path fill="#302133" d="M-40.943,3224.545l-0.004-1275.752l30.943,4.795c115.605,9.406,182,19.75,310,19.75
			c46.744,0,244.085,45.511,265.496-7.838c4.542-11.317-23.079-56.98-30-125c-2.552-25.086,3.406-65.006,7-94
			c2.354-18.995,6.354-33.753-3-35c-15-2-26.487,56.077-47,61c-25,6-22.419-56.002-32-55c-15.969,1.669-8,62-35,63
			c-27.44,1.017-15.342-51.841-16-88c-1-117,101-167,124.644-299.307c14.743-41.512,23.023-59.31,82.356-69.693
			c80-14,95.029,87.051,108.463,138.944c22.537,87.056,63.419,104.872,76.537,187.056c0.937,13.297,13.945,127.317-16.333,131
			c-49.333,6-20.08-60.583-39.333-70.667c-14.148-7.41-11.985,44.914-42.667,46.667c-23.333,1.333-29.136-36.938-40.667-42
			c-27.333-12-29.165,14.721-31,27c-4.385,29.349-14.894,58.152-12,90c5.04,55.466,32.599,111.531,65,134
			c90.069,62.461,639.013,89.108,734.624-20.425c9.564-10.956,3.535-29.248,4.71-53.91c1.688-35.42,12.772-88.394,10-132.665
			c-0.138-2.207-13.8-0.857-24-1.333c-9.981-0.466-17.269-5.911-23.333,0c-4.541,4.426-4.234,34.748-2.667,59.333
			c0.736,11.55,3.77,20.644,1.673,32.367c-3.289,18.386-12.387,17.934-23.006,16.3c-6.951-1.069-16.697-6.39-17.11-26.691
			c-0.144-7.077,5.777-21.399,7.777-29.309c6.109-24.159,10.542-52.267,4.423-59.742c-5.402-6.6-13.761-7.253-25.011-8.604
			c-10.039-1.205-19.079-8.654-26.391-6.034c-1.656,0.594-5.631,21.35-3.458,43.308c1.031,10.413,4.232,16.634,4.105,27.072
			c-0.15,12.32-5.667,15.666-17.333,15.333c-9.714-0.277-18.782-7.49-19.002-19.333c-0.125-6.726,5.199-19.157,6.669-27
			c4.453-23.758,9.268-43.787,7.489-44.263c-21.969-5.881-37.968-13.735-39.491-25.404c-1.295-9.924-4.468-22.466,8.667-38
			c13.912-16.452,44.574-36.06,58.05-51.955c59.95-70.711,119.95-76.711,119.95-76.711s24.673-29.754,48-28
			c26.667,2.005,24.134,12.23,42.667,18.667c20.97,7.283,48.976,13.05,72.667,29.672c60.333,42.333,160,116.328,154.667,131.661
			c-6.714,19.303-40.683,42.452-73.333,53.667c-3.85,1.322-0.188,25.776,0.5,52.5c0.199,7.765,5.839,14.906,6.484,21.839
			c2.016,21.661-8.601,25.945-22.484,26.661c-15.156,0.781-22.439-8.31-23.994-21.36c-1.506-12.64,5.474-15.79,6.494-24.64
			c2.856-24.773,5.146-50.61,2.958-50.242c-21.577,3.633-44.953,5.338-65.951,6.372c-2.04,0.101,0.031,16.076,2.493,33.37
			c0.892,6.266,4.426,12.473,4.327,18.492c-0.327,20.008-6.14,25.063-21.827,26.008c-12.375,0.746-16.79-9.875-17.746-23.432
			c-0.426-6.033,3.198-12.115,3.746-18.568c1.503-17.714,1.814-34.742-0.545-34.651c-21.473,0.829-36.189,1.607-36.455,4.651
			c-6.786,77.659-1.423,159.41,24.617,185.451c68.055,46.387,562.474,106.387,671.963-65.313
			c27.522-43.16,31.448-94.635,0.42-131.139c-11.333-13.333-26.673-55.66-25.716-78.869c2.911-70.635-15.624-192.663,39.063-243.444
			c117.191-109.379,148.443,140.63,148.443,203.132c0,47.305-13.123,97.515-26.79,126.181
			c-25.506,53.498-12.982,117.523,37.071,167.576c85.938,82.033,187.386,82.473,296.764,86.379
			c121.097,3.906,185.007,6.906,294.385-55.596c82.034-46.875,215.091-30.045,269.78-100.359c9.427-12.963-13.383-34.642-12.002-52
			c3.163-39.755-4-65.333,23.002-68c38.136-3.767,44.108,35.093,36,74c-5.002,24-15.106,46.256-2,61
			c62.502,62.502,177.014-19.736,184.827-62.705c10.703-70.647,104.882-118.631,90.173-176.295
			c-1.067-4.186-9.839-11.556-22.082-18.716c-3.065-1.792-4.224,17.35-15.418,14.716c-8.5-2,0.717-22.385-1.832-23.509
			c-9.027-3.978-18.705-7.307-28.001-9.158c-5.729-1.141-12.218,23.332-17.334,21.333c-7.044-2.75,2.552-25.529-4.666-27.333
			c-16-4-24.442-11.065-24.667-15.333c-1.709-32.464,37.521-67.055,39.827-106.249c3.905-85.938,66.846-328.134,172.315-187.505
			c62.867,81.727,31.857,211.753,75.857,323.753c2.245,5.716-3.434,9.599-13.378,12.51c-2.819,0.825-2.955,19.157-12.289,18.157
			c-4.647-0.498-6.743-14.156-12.056-13.396c-8.574,1.227-17.84,2.303-26.955,3.427c-5.6,0.69-1.989,21.303-15.989,20.637
			c-5.422-0.258-10.927-16.83-15.575-15.865c-13.541,2.811-23.144,6.592-23.758,12.531c-2.124,44.617-95.959,123.955-79,188
			c14.223,53.709,134.725,94.681,177.02,114.643c140.841,66.475,235.854-14.533,404.483,9.563l0.005,1271.84"/>
	</g>
	<g id="Layer_2" display="none">
		
			<rect x="-127" y="1212" display="inline" fill="none" stroke="#000000" stroke-width="2" stroke-miterlimit="10" width="5076" height="380"/>
	</g>
</g>
</svg>
